# xmcd
#
# Track frame offsets:
#	150
#	17023
#	30286
#	60363
#	76279
#	98337
#	116284
#	132672
#	147820
#	166906
#	183232
#	200700
#	221054
#	240163
#
# Disc length: 3531 seconds
#
# Revision: 0
# Processed by: cddbd v1.5.2PL0 Copyright (c) Steve Scherf et al.
# Submitted via: EasyCDDAExtractor 11.5.0.1
#
DISCID=aa0dc90e
DTITLE=소망의바다 미니스트리 - THE STORY
DYEAR=2008
DGENRE=CCM
TTITLE0=원더풀 스토리
TTITLE1=주님의 새날을
TTITLE2=내 사랑으로 지은 너
TTITLE3=거짓말
TTITLE4=십자가에 새겨주소서
TTITLE5=어린양
TTITLE6=반석
TTITLE7=주님은 아시죠
TTITLE8=십자가의 전달자 feat.김은현
TTITLE9=Amazing grace
TTITLE10=아주 작은 빛 하나라도
TTITLE11=한사람
TTITLE12=십자가의 전달자 feat.소망의바다
TTITLE13=주만이
EXTD=
EXTT0=
EXTT1=
EXTT2=
EXTT3=
EXTT4=
EXTT5=
EXTT6=
EXTT7=
EXTT8=
EXTT9=
EXTT10=
EXTT11=
EXTT12=
EXTT13=
PLAYORDER=
